Coordinates
version=1
nRows=17
nColumns=24
inDegrees=yes

Units are S.I. units (second, meters, Newtons, ...)
Angles are in degrees.

endheader
time	pelvis_tilt	pelvis_list	pelvis_rotation	pelvis_tx	pelvis_ty	pelvis_tz	hip_flexion_r	hip_adduction_r	hip_rotation_r	knee_angle_r	ankle_angle_r	subtalar_angle_r	mtp_angle_r	hip_flexion_l	hip_adduction_l	hip_rotation_l	knee_angle_l	ankle_angle_l	subtalar_angle_l	mtp_angle_l	lumbar_extension	lumbar_bending	lumbar_rotation
      5.02000000	     -2.49433788	      8.00417771	     -4.40965900	      0.41304179	      1.02124384	     -0.25094063	     11.53837727	    -12.37707920	     -5.35723294	    -64.41564090	     -8.44330917	     -0.82781593	      0.00000000	     14.77698864	     11.46095264	     -3.40967304	    -12.47038887	      6.64297381	    -10.16782327	      0.00000000	    -10.63525788	    -11.14694373	     -0.07191984
      5.02500000	     -2.43308401	      7.97011669	     -4.34645499	      0.41898374	      1.02203425	     -0.25160261	     12.20196401	    -12.30801931	     -5.32088053	    -65.00362099	     -7.10074205	     -0.51476268	      0.00000000	     14.18365759	     11.54103641	     -3.19789563	    -12.17590295	      6.84747144	    -10.19760136	      0.00000000	    -10.71256994	    -11.05058949	     -0.27223852
      5.03000000	     -2.36880072	      7.96104183	     -4.26176876	      0.42494781	      1.02282971	     -0.25234728	     12.84775521	    -12.27780836	     -5.32128979	    -65.52384589	     -5.69068181	     -0.16510159	      0.00000000	     13.55361141	     11.66613573	     -2.83603325	    -11.81335971	      6.87971997	    -10.43763592	      0.00000000	    -10.78672008	    -10.97696760	     -0.48205963
      5.03500000	     -2.30813789	      7.89693679	     -4.16323697	      0.43089919	      1.02362516	     -0.25312164	     13.47566421	    -12.18380097	     -5.34321483	    -65.96371510	     -4.29636230	      0.19531125	      0.00000000	     12.92136080	     11.73547640	     -2.47610259	    -11.45344628	      6.96695509	    -10.66366965	      0.00000000	    -10.85820927	    -10.82783224	     -0.71984552
      5.04000000	     -2.23762915	      7.84435566	     -4.04956252	      0.43685279	      1.02444940	     -0.25389376	     14.07578987	    -12.10292485	     -5.39382699	    -66.32736647	     -2.90445439	      0.52954852	      0.00000000	     12.25230957	     11.81843720	     -2.03281361	    -11.04425659	      6.95162418	    -10.95098301	      0.00000000	    -10.94172887	    -10.70115984	     -0.93730324
      5.04500000	     -2.16674857	      7.75981606	     -3.93113076	      0.44278516	      1.02526827	     -0.25466960	     14.65997159	    -11.98148697	     -5.45267697	    -66.61869819	     -1.54863832	      0.85646997	      0.00000000	     11.57904166	     11.86341839	     -1.60603896	    -10.63324925	      6.96055046	    -11.21853901	      0.00000000	    -11.02765522	    -10.53303519	     -1.16593396
      5.05000000	     -2.09227314	      7.66372446	     -3.80530499	      0.44870968	      1.02608667	     -0.25545747	     15.22477096	    -11.84646000	     -5.52813025	    -66.83799012	     -0.23542806	      1.16002065	      0.00000000	     10.88976654	     11.89364374	     -1.17142792	    -10.20142233	      6.95043363	    -11.49571956	      0.00000000	    -11.11785004	    -10.34993666	     -1.39412707
      5.05500000	     -2.00317244	      7.55854473	     -3.68164343	      0.45460756	      1.02689944	     -0.25624618	     15.76530279	    -11.69750909	     -5.60776770	    -66.99226140	      1.01393586	      1.42156959	      0.00000000	     10.16902457	     11.91087620	     -0.68145452	     -9.74183254	      6.92632844	    -11.80856847	      0.00000000	    -11.22946580	    -10.15738118	     -1.62152342
      5.06000000	     -1.97579988	      7.38895779	     -3.58090814	      0.46042991	      1.02766146	     -0.25688511	     16.36002454	    -11.43984225	     -5.65733704	    -67.06436817	      2.19159841	      1.64230556	      0.00000000	      9.54210466	     11.82721320	     -0.38176761	     -9.33340482	      7.01385155	    -11.88774782	      0.00000000	    -11.27349543	     -9.90653690	     -1.77630175
      5.06500000	     -1.83933743	      7.29798315	     -3.40843982	      0.46639717	      1.02850562	     -0.25780698	     16.79929112	    -11.33571521	     -5.82590730	    -67.07104408	      3.35116635	      1.85830781	      0.00000000	      8.72165698	     11.87016649	      0.22021561	     -8.78823569	      6.84160498	    -12.36434628	      0.00000000	    -11.42976330	     -9.71571903	     -2.05659150
      5.07000000	     -1.74498673	      7.13873390	     -3.27483767	      0.47227851	      1.02930657	     -0.25856115	     17.27789068	    -11.11541527	     -5.94766902	    -67.00058711	      4.42018385	      2.03285639	      0.00000000	      7.97019494	     11.80792384	      0.67246464	     -8.28609423	      6.78625371	    -12.64057889	      0.00000000	    -11.54304010	     -9.46360982	     -2.26055181
      5.07500000	     -1.65916080	      6.97633417	     -3.13478719	      0.47813960	      1.03007629	     -0.25930442	     17.75108237	    -10.88614959	     -6.07831529	    -66.86297180	      5.42994300	      2.17992651	      0.00000000	      7.22397824	     11.73405532	      1.12180275	     -7.77456466	      6.71627203	    -12.91380984	      0.00000000	    -11.64767779	     -9.21050783	     -2.46300967
      5.08000000	     -1.57046315	      6.80128384	     -3.00126505	      0.48399014	      1.03082012	     -0.26002623	     18.20712748	    -10.63738113	     -6.21367109	    -66.65737873	      6.38391637	      2.29802174	      0.00000000	      6.46474027	     11.63840784	      1.58254690	     -7.24242024	      6.62999563	    -13.20657659	      0.00000000	    -11.75512248	     -8.94482465	     -2.65737170
      5.08500000	     -1.49653858	      6.61391141	     -2.86733732	      0.48983079	      1.03153823	     -0.26071447	     18.66175148	    -10.36490457	     -6.34669950	    -66.38124755	      7.28505901	      2.41490889	      0.00000000	      5.72398288	     11.51976559	      1.99098992	     -6.70970082	      6.52639457	    -13.47441811	      0.00000000	    -11.84198257	     -8.66691175	     -2.85330573
      5.09000000	     -1.40236762	      6.42738880	     -2.73655810	      0.49566178	      1.03222200	     -0.26138874	     19.08266788	    -10.09066393	     -6.48626529	    -66.04531861	      8.14358459	      2.49673872	      0.00000000	      4.94598796	     11.39557507	      2.47216050	     -6.14794924	      6.40241016	    -13.80918120	      0.00000000	    -11.95209292	     -8.39391351	     -3.03773391
      5.09500000	     -1.31401567	      6.24281911	     -2.61661444	      0.50146763	      1.03284372	     -0.26201025	     19.50275550	     -9.80677594	     -6.61460409	    -65.65381014	      8.96956636	      2.56377252	      0.00000000	      4.17368529	     11.26161305	      2.94518025	     -5.57998687	      6.28825759	    -14.13116629	      0.00000000	    -12.05539380	     -8.12996960	     -3.19992512
      5.10000000	     -1.23585150	      6.05160802	     -2.48914959	      0.50726728	      1.03342487	     -0.26261380	     19.91374252	     -9.50968330	     -6.74427772	    -65.19607905	      9.77312554	      2.64321698	      0.00000000	      3.41130060	     11.11266116	      3.38353297	     -5.00466743	      6.14864373	    -14.44930535	      0.00000000	    -12.14501728	     -7.85807134	     -3.38000331
